:SAMPLES-PER-SECOND 30
:FULLY-SPECIFIED
:DEGREES
452
root  -47.3161 30.9476 28.5573 -173.828 54.2235 -177.27
RightUpLeg  -18.998 -16.7788 -2.09718
RightLeg  51.6941 3.39491 3.71084
RightFoot  -23.6534 -0.480591 -1.78141
RightToes  -33.431 -0.168247 -0.275091
Spine  1.85382 -0.599159 2.74067
Spine1  3.50003 -1.51568 6.41104
HEad  -90.8366 9.25026 12.3637
LeftShoulder1  -1.94126e-019 -3.10601e-018 -2.51263e-017
LeftArm  -20.5844 32.7125 -76.808
LeftForeArm  32.216 -7.95026 -1.39197
LeftHand  -0.416059 1.35006 11.9011
RightShoulder  -4.96962e-017 0 -2.36833e-017
RightArm  -42.9164 -25.4364 75.344
RightForeArm  74.5422 4.48015 0.709023
RightHand  -0.34112 -1.64979 -10.4382
LeftUpLeg  -37.5683 13.79 11.3928
LeftLeg  54.6256 17.4549 20.2784
LeftFoot  4.58539 -0.0847308 2.2777
LeftToes  -31.3633 2.40056e-006 -7.68412e-008
453
root  -47.0018 30.8644 28.9743 -176.183 52.6656 -177.815
RightUpLeg  -17.6019 -17.1522 -1.80695
RightLeg  53.2404 2.3804 2.73029
RightFoot  -24.3149 -0.382127 -1.25247
RightToes  -31.732 -0.156028 -0.263821
Spine  1.85035 -0.691326 2.0911
Spine1  3.53994 -1.68208 5.09335
HEad  -84.5334 6.14954 13.868
LeftShoulder1  -1.94126e-019 -3.10601e-018 -2.51263e-017
LeftArm  -20.1864 33.7268 -75.4993
LeftForeArm  30.7233 -8.06496 -1.41313
LeftHand  -0.42763 0.703294 10.603
RightShoulder  -4.96962e-017 0 -2.36833e-017
RightArm  -46.8664 -25.0608 75.1865
RightForeArm  74.5592 3.243 0.497139
RightHand  -0.0745414 -4.78177 -11.0322
LeftUpLeg  -35.9042 7.28166 12.8924
LeftLeg  53.4101 15.9651 17.9769
LeftFoot  4.59832 -0.0743283 2.01272
LeftToes  -32.8122 2.40056e-006 -7.68412e-008
454
root  -46.7005 30.9425 29.2128 -178.452 51.5365 -178.328
RightUpLeg  -15.1172 -17.6174 -1.95423
RightLeg  52.8385 1.8592 2.09098
RightFoot  -24.6243 -0.317202 -0.927547
RightToes  -30.4495 -0.147028 -0.255078
Spine  1.59026 -0.444184 1.53173
Spine1  3.0806 -1.14726 3.94011
HEad  -75.497 2.03533 14.8277
LeftShoulder1  -1.94126e-019 -3.10601e-018 -2.51263e-017
LeftArm  -20.257 33.6642 -74.9254
LeftForeArm  30.6842 -6.33955 -1.10597
LeftHand  -0.400933 0.296326 9.18067
RightShoulder  -4.96962e-017 0 -2.36833e-017
RightArm  -48.5508 -25.9994 74.5629
RightForeArm  72.763 3.47629 0.545311
RightHand  0.0371998 -5.86006 -13.5919
LeftUpLeg  -33.7436 0.919184 13.6818
LeftLeg  50.8736 13.2082 13.848
LeftFoot  3.26595 -0.0272102 1.11601
LeftToes  -32.4889 2.40056e-006 -7.68412e-008
455
root  -46.4265 31.0917 29.3103 179.073 50.2549 -179.209
RightUpLeg  -12.1007 -18.2028 -2.72634
RightLeg  51.4979 1.5834 1.69291
RightFoot  -24.8341 -0.277685 -0.732753
RightToes  -29.9298 -0.143438 -0.251478
Spine  1.29234 -0.142384 1.01657
Spine1  2.54048 -0.476188 2.86101
HEad  -66.2976 -2.47574 14.5072
LeftShoulder1  -1.94126e-019 -3.10601e-018 -2.51263e-017
LeftArm  -21.282 32.7446 -75.0616
LeftForeArm  30.6844 -3.51009 -0.605925
LeftHand  -0.393127 -0.0425939 8.47034
RightShoulder  -4.96962e-017 0 -2.36833e-017
RightArm  -45.9561 -27.3448 73.666
RightForeArm  67.4354 5.19674 0.859257
RightHand  -0.0582486 -5.02081 -13.4392
LeftUpLeg  -31.4972 -5.71696 13.6091
LeftLeg  48.4904 11.1884 10.9013
LeftFoot  1.62652 -0.00422349 0.459092
LeftToes  -33.2437 2.40056e-006 -7.68412e-008
456
root  -46.2038 31.2344 29.414 177.851 49.4458 -179.448
RightUpLeg  -10.2288 -18.4479 -2.81412
RightLeg  50.3907 1.22414 1.24917
RightFoot  -24.6199 -0.222061 -0.485973
RightToes  -29.3869 -0.139722 -0.24678
Spine  0.760566 0.648408 0.670032
Spine1  1.5298 1.19253 2.09333
HEad  -57.5459 -7.45882 13.1812
LeftShoulder1  -1.94126e-019 -3.10601e-018 -2.51263e-017
LeftArm  -23.2402 32.0658 -75.5738
LeftForeArm  30.4694 -4.22935 -0.731793
LeftHand  -0.403533 -0.328637 8.2836
RightShoulder  -4.96962e-017 0 -2.36833e-017
RightArm  -41.5845 -29.2304 72.3557
RightForeArm  61.3819 7.82805 1.33109
RightHand  -0.170082 -3.74124 -11.0712
LeftUpLeg  -30.119 -10.6182 13.667
LeftLeg  46.7433 9.38836 8.65972
LeftFoot  0.976808 -0.000581285 0.229741
LeftToes  -34.1949 2.40056e-006 -7.68412e-008
457
root  -45.9904 31.3917 29.506 176.547 49.5302 -179.829
RightUpLeg  -8.35907 -18.3236 -3.04804
RightLeg  49.0343 1.22392 1.19304
RightFoot  -24.3809 -0.215029 -0.463466
RightToes  -28.6648 -0.134836 -0.24258
Spine  0.20863 1.48335 0.374238
Spine1  0.441404 2.93268 1.42053
HEad  -49.4714 -10.6727 10.7449
LeftShoulder1  -1.94126e-019 -3.10601e-018 -2.51263e-017
LeftArm  -23.644 32.5024 -76.5071
LeftForeArm  27.7748 -7.00848 -1.22426
LeftHand  -0.385031 -0.557382 7.62212
RightShoulder  -4.96962e-017 0 -2.36833e-017
RightArm  -36.4489 -30.4924 70.6114
RightForeArm  58.5719 9.98757 1.53549
RightHand  -0.245892 -2.73662 -10.3519
LeftUpLeg  -28.1763 -13.2335 13.5143
LeftLeg  44.8746 8.42122 7.29644
LeftFoot  1.45273 -0.00176395 0.300679
LeftToes  -34.0056 2.40056e-006 -7.68412e-008
458
root  -45.7782 31.5117 29.5819 174.841 49.7319 179.718
RightUpLeg  -6.15678 -18.1291 -3.50781
RightLeg  47.8293 1.33788 1.25605
RightFoot  -24.3411 -0.225158 -0.512784
RightToes  -28.4385 -0.13205 -0.240968
Spine  0.0414334 2.04066 0.0775934
Spine1  0.0925317 4.11832 0.769521
HEad  -43.7017 -11.6712 8.39068
LeftShoulder1  -1.94126e-019 -3.10601e-018 -2.51263e-017
LeftArm  -24.5946 32.8917 -77.5884
LeftForeArm  26.2753 -10.3189 -1.80859
LeftHand  -0.350673 -1.13377 6.38194
RightShoulder  -4.96962e-017 0 -2.36833e-017
RightArm  -32.773 -29.9195 69.0514
RightForeArm  57.5142 11.2841 1.5261
RightHand  -0.269414 -2.52297 -10.5714
LeftUpLeg  -25.8143 -14.0766 13.1831
LeftLeg  43.3721 9.05827 7.43711
LeftFoot  3.40404 -0.0170947 0.736839
LeftToes  -36.2701 2.40056e-006 -7.68412e-008
459
root  -45.62 31.554 29.678 173.511 49.5973 179.454
RightUpLeg  -4.67969 -17.7208 -3.60679
RightLeg  47.4031 1.02504 0.939033
RightFoot  -24.4793 -0.187139 -0.328957
RightToes  -27.9675 -0.130178 -0.236151
Spine  -0.0566451 2.20352 -0.148556
Spine1  -0.135764 4.49214 0.282569
HEad  -41.1947 -10.8845 6.4134
LeftShoulder1  -1.94126e-019 -3.10601e-018 -2.51263e-017
LeftArm  -23.82 33.346 -78.6468
LeftForeArm  24.0133 -13.6835 -2.25925
LeftHand  -0.349487 -1.64998 5.93456
RightShoulder  -4.96962e-017 0 -2.36833e-017
RightArm  -30.7365 -28.2704 67.7221
RightForeArm  56.2729 12.1004 1.47799
RightHand  -0.260956 -2.71738 -10.9459
LeftUpLeg  -24.1328 -13.0913 13.0548
LeftLeg  42.2658 8.68401 6.86186
LeftFoot  4.5709 -0.0314517 0.949602
LeftToes  -38.6627 2.40056e-006 -7.68412e-008
